<svg xmlns="http://www.w3.org/2000/svg" xml:space="preserve" id="katman_1" x="0" y="0" version="1.0" viewBox="0 0 845 558"><path fill="#3999fa" d="m-163 120-24 88h-26l-34-129h28l21 93 24-93h23l24 93h1l20-93h28l-34 129h-25l-25-88h-1zm123 70c11 0 20-7 20-18v-7l-20 2c-10 0-15 5-15 11 0 8 6 12 15 12zm-9 19c-18 0-32-12-32-29s13-27 37-29l24-1v-7c0-9-6-14-16-14s-16 5-17 12h-24c1-18 17-31 42-31s41 12 41 32v66h-25v-15h-1c-5 10-17 16-29 16zM23 79h26v129H23V79zm45 0h26v129H68V79zm86 50c-11 0-19 9-20 21h40c0-13-8-21-20-21zm21 49h24c-3 19-20 32-44 32-29 0-47-19-47-50 0-30 18-50 46-50s46 19 46 48v8h-66v1c0 14 8 24 22 24 9-1 16-5 19-13zm45-88h26v22h18v20h-18v45c0 8 4 11 11 11h7v19l-13 1c-22 0-31-7-31-26v-50h-14v-20h14V90zm117 120c-37 0-61-25-61-67s24-67 61-67c31 0 55 20 57 49h-26c-3-16-15-26-31-26-20 0-33 17-33 44s13 44 33 44c16 0 28-9 31-24h26c-3 29-25 47-57 47zm115 0c-29 0-47-19-47-50s19-50 47-50c29 0 48 18 48 50 0 31-19 50-48 50zm0-20c13 0 21-11 21-30s-8-30-21-30c-12 0-21 11-21 30s9 30 21 30zm61 18v-96h25v17h1c5-12 15-19 30-19 21 0 33 13 33 36v62h-26v-57c0-12-6-19-18-19-11 0-19 8-19 21v55h-26zm106 0v-96h25v17c5-12 16-19 30-19 22 0 33 13 33 36v62h-26v-57c0-12-6-19-17-19-12 0-19 8-19 21v55h-26zm148-79c-11 0-20 9-20 21h40c0-13-8-21-20-21zm21 49h24c-3 19-20 32-44 32-30 0-47-19-47-50 0-30 17-50 46-50 28 0 45 19 45 48v8h-66v1c0 14 9 24 22 24 10-1 17-5 20-13zm125-31h-24c-2-10-9-17-19-17-13 0-21 11-21 30s8 29 21 29c10 0 17-6 19-16h24c-1 22-18 37-44 37-28 0-47-19-47-50s19-50 47-50c26 0 43 16 44 37zm19-57h26v22h18v20h-17v45c0 8 3 11 11 11h6v19l-12 1c-23 0-32-7-32-26v-50h-13v-20h13V90z" transform="matrix(.39 0 0 .39 389 238)"/><path fill="#3a99fb" d="M54 48c77-76 203-76 280 0l9 9c4 4 4 10 0 14l-31 31c-2 2-5 2-7 0l-13-13c-54-53-142-53-195 0l-14 14c-2 2-5 2-7 0L44 71c-4-3-4-9 0-13l10-10zm346 64 28 28c4 4 4 10 0 13L301 280c-4 3-11 3-14 0l-91-89h-4l-90 89c-4 3-10 3-14 0L-40 154c-4-4-4-10 0-14l28-28c4-4 10-4 14 0l91 89h3l91-89c4-4 10-4 14 0l91 89h3l91-89c4-4 10-4 14 0z" transform="matrix(.39 0 0 .39 91 226)"/></svg>